<?xml version="1.0" encoding="UTF-8"?>
<svg data-bbox="72.002 8.006 463.997 487.994" height="640" width="640" viewBox="0 0 640 640" xmlns:xlink="http://www.w3.org/1999/xlink" xmlns="http://www.w3.org/2000/svg" data-type="ugc">
    <g>
        <defs>
            <path id="637f78b5-2db9-4042-acd0-9ce679358d1c" d="M326.17 80c4.45-4.45 6.92-6.93 7.41-7.42.09-.08.12-.2.2-.29a8 8 0 001.28-1.93c.12-.24.24-.46.34-.7.02-.06.05-.12.08-.17 1.7-5.1 15.26-45.87 16.96-50.97 1.39-4.19-.89-8.72-5.08-10.11-1.64-.54-3.4-.54-5.04.01-5.09 1.69-45.79 15.26-50.88 16.96-.11 0-.18.12-.29.16-.38.18-.75.39-1.09.63-.58.28-1.12.64-1.6 1.05-.05 0-.11.06-.15.1L239.1 76.54a7.89 7.89 0 00-5.16-4.3c-.68-.17-4.13-1.03-10.32-2.58 3.28-5.49 5.11-8.54 5.48-9.15a8.017 8.017 0 00-1.2-9.77c-2.27-2.26-20.38-20.37-22.64-22.64a8.002 8.002 0 00-9.77-1.2c-.61.36-3.66 2.19-9.15 5.48-1.55-6.19-2.41-9.63-2.58-10.32A8 8 0 00176 16h-32a8 8 0 00-7.76 6.06c-.17.69-1.03 4.13-2.58 10.32-5.49-3.29-8.54-5.12-9.15-5.48a8.002 8.002 0 00-9.77 1.2c-2.26 2.27-20.37 20.38-22.64 22.64a8.017 8.017 0 00-1.2 9.77c.37.61 2.2 3.66 5.48 9.15-6.19 1.55-9.64 2.41-10.32 2.58A8 8 0 0080 80v32a8 8 0 006.06 7.76c.68.17 4.13 1.03 10.32 2.58-3.28 5.49-5.11 8.54-5.48 9.15a8.017 8.017 0 001.2 9.77c2.27 2.26 20.38 20.37 22.64 22.64a8.002 8.002 0 009.77 1.2c.61-.36 3.66-2.19 9.15-5.48 1.55 6.19 2.41 9.63 2.58 10.32a7.885 7.885 0 004.3 5.16c-6.15 6.16-55.36 55.37-61.51 61.52-9.37 9.38-9.37 24.57 0 33.94l11.32 11.33c4.5 4.5 10.61 7.02 16.98 7.01 1.57-.01 3.13-.16 4.67-.47V416c0 4.42 3.58 8 8 8h176v24h-40a8.01 8.01 0 00-7.16 4.42l-16 32a8.014 8.014 0 003.58 10.74c1.11.55 2.34.84 3.58.84h160c4.42.02 8.02-3.54 8.04-7.96.01-1.25-.28-2.49-.84-3.62l-16-32A7.994 7.994 0 00384 448h-40v-24h184c4.42 0 8-3.58 8-8V88c0-4.42-3.58-8-8-8H326.17zm60.89 400H252.94l8-16h118.12l8 16zM312 448v-16h16v16h-16zm-25.84-328H312v32h-57.84l32-32zM135.6 247.94l-5.66-5.66 181-180.99 5.64 5.66L135.6 247.94zM294 44.3l5.66 5.67-181.04 181-5.65-5.66L294 44.3zm30.4 7.79l-15.6-15.63 23.42-7.81-7.82 23.44zM150.25 160c-2.21-8.84-3.44-13.75-3.69-14.74a8.002 8.002 0 00-11.88-4.92c-.87.53-5.22 3.13-13.04 7.83l-13.81-13.77c4.7-7.82 7.31-12.17 7.83-13.04a7.995 7.995 0 00-2.75-10.97c-.67-.41-1.4-.71-2.17-.9-.98-.25-5.89-1.49-14.74-3.73V86.24c8.85-2.21 13.76-3.44 14.74-3.69 4.29-1.07 6.89-5.42 5.82-9.7-.19-.76-.49-1.5-.9-2.17-.52-.87-3.13-5.22-7.83-13.04l13.81-13.81c7.82 4.7 12.17 7.3 13.04 7.83 3.79 2.27 8.7 1.04 10.98-2.74.4-.68.71-1.42.9-2.18.25-.99 1.48-5.9 3.69-14.74h19.5c2.21 8.84 3.44 13.75 3.69 14.74a8.002 8.002 0 0011.88 4.92c.87-.53 5.22-3.13 13.04-7.83l13.81 13.81c-4.7 7.82-7.31 12.17-7.83 13.04a7.995 7.995 0 002.75 10.97c.67.41 1.4.71 2.17.9.98.25 5.89 1.48 14.74 3.69v5.42L155.66 160h-5.41zm-59.91 99.24a7.991 7.991 0 010-11.3c.75-.76 4.52-4.53 11.31-11.32l22.63 22.63c-6.78 6.79-10.55 10.56-11.3 11.32a8.015 8.015 0 01-11.32 0c-2.26-2.27-10.19-10.2-11.32-11.33zM520 408H128V278.17l8-8V280h72v-16h-65.84l8-8H208v-16h-41.84l8-8H208v-16h-17.84l48-48H320c4.42 0 8-3.58 8-8v-48c0-4.42-3.58-8-8-8h-17.84l8-8H520v312z"/>
            <linearGradient y2="496" x2="304" y1="8.01" x1="304" gradientUnits="userSpaceOnUse" id="1ee9d796-9aee-45f5-9c71-46478d923d1d">
                <stop offset="0%" stop-color="#2b5876"/>
                <stop offset="100%" stop-color="#4e4376"/>
            </linearGradient>
            <path id="0c4c6d2f-936d-43b4-b33a-f956847ea9d7" d="M387.58 352.27c25.64-30.63 27.3-74.72 4.06-107.2 1.81-1.4 10.84-8.43 27.1-21.07H456v-16h-40c-1.78 0-3.51.59-4.91 1.69-2.99 2.32-26.88 20.88-29.87 23.2-34.76-33.86-90.39-33.12-124.24 1.64A87.868 87.868 0 00232.41 288H136v16h96.41c4.36 48.35 47.09 84.01 95.43 79.65a87.893 87.893 0 0048.43-20.07c1.81 1.81 16.27 16.27 18.07 18.08 1.5 1.5 3.54 2.34 5.66 2.34h112v-16H403.31l-15.73-15.73zm-19.16-109.4c-1.95 1.52-11.73 9.13-29.33 22.82l9.82 12.62c18.07-14.05 28.11-21.86 30.11-23.42 18.3 26.1 17.15 61.15-2.82 86-5.05-5.06-45.49-45.49-50.54-50.55A8.008 8.008 0 00320 288h-71.53c4.11-36.41 34.89-63.95 71.53-64 17.93.01 35.21 6.74 48.42 18.87zM248.47 304h68.22c28.92 28.92 44.98 44.99 48.2 48.2A71.585 71.585 0 01320 368c-36.64-.05-67.42-27.59-71.53-64z"/>
            <linearGradient y2="384.01" x2="324" y1="207.97" x1="324" gradientUnits="userSpaceOnUse" id="832e99ec-4b89-4e68-b523-975413082422">
                <stop offset="0%" stop-color="#2b5876"/>
                <stop offset="100%" stop-color="#4e4376"/>
            </linearGradient>
            <path id="7d25a85b-88e8-4fb2-ae46-4b2555918f2d" d="M512 344v16h-72v-16h72z"/>
            <linearGradient y2="360" x2="476" y1="344" x1="476" gradientUnits="userSpaceOnUse" id="b3586a2d-c9a2-4d9e-9203-79709b67ab69">
                <stop offset="0%" stop-color="#2b5876"/>
                <stop offset="100%" stop-color="#4e4376"/>
            </linearGradient>
            <path id="25c62c74-30ee-4d88-9843-aa68933ff71b" d="M512 320v16h-72v-16h72z"/>
            <linearGradient y2="336" x2="476" y1="320" x1="476" gradientUnits="userSpaceOnUse" id="c6038801-d814-4467-bf23-c5eab3765362">
                <stop offset="0%" stop-color="#2b5876"/>
                <stop offset="100%" stop-color="#4e4376"/>
            </linearGradient>
            <path id="65eb79a2-7a2c-4e74-9d8f-3908ee88bc89" d="M512 296v16h-72v-16h72z"/>
            <linearGradient y2="312" x2="476" y1="296" x1="476" gradientUnits="userSpaceOnUse" id="88511522-adbb-4dfe-8a38-95b7d004a683">
                <stop offset="0%" stop-color="#2b5876"/>
                <stop offset="100%" stop-color="#4e4376"/>
            </linearGradient>
            <path id="e5fb2565-8607-4a7f-8cae-ed085cc6f1fe" d="M456 184v16h-64v-16h64z"/>
            <linearGradient y2="200" x2="424" y1="184" x1="424" gradientUnits="userSpaceOnUse" id="29d5d982-2f17-4343-85d3-e77cb4803069">
                <stop offset="0%" stop-color="#2b5876"/>
                <stop offset="100%" stop-color="#4e4376"/>
            </linearGradient>
            <path id="6a639aa9-b336-46d1-bb78-c5d8ed887dee" d="M456 160v16h-64v-16h64z"/>
            <linearGradient y2="176" x2="424" y1="160" x1="424" gradientUnits="userSpaceOnUse" id="7b8e2b71-3c18-4544-ad61-3e87c232d31b">
                <stop offset="0%" stop-color="#2b5876"/>
                <stop offset="100%" stop-color="#4e4376"/>
            </linearGradient>
            <path id="168a4d74-197a-4dcb-a9e0-bb1eb32feb8f" d="M456 136v16h-64v-16h64z"/>
            <linearGradient y2="152" x2="424" y1="136" x1="424" gradientUnits="userSpaceOnUse" id="9ea895fb-e286-4c02-9300-708196b33c82">
                <stop offset="0%" stop-color="#2b5876"/>
                <stop offset="100%" stop-color="#4e4376"/>
            </linearGradient>
            <path id="5ac69e43-034e-4301-b041-d08cc6b5d414" d="M152 384v16h-16v-16h16z"/>
            <linearGradient y2="400" x2="144" y1="384" x1="144" gradientUnits="userSpaceOnUse" id="78cd9596-ef41-448d-bc65-18bb99734489">
                <stop offset="0%" stop-color="#2b5876"/>
                <stop offset="100%" stop-color="#4e4376"/>
            </linearGradient>
            <path id="710f3d88-7625-40d1-afcb-2774fa4b79b0" d="M176 384v16h-16v-16h16z"/>
            <linearGradient y2="400" x2="168" y1="384" x1="168" gradientUnits="userSpaceOnUse" id="d04f619b-0c27-4ba5-b58e-933d8076a4f6">
                <stop offset="0%" stop-color="#2b5876"/>
                <stop offset="100%" stop-color="#4e4376"/>
            </linearGradient>
            <path id="238d9b0d-e878-4675-8943-56e71bb7b34f" d="M152 360v16h-16v-16h16z"/>
            <linearGradient y2="376" x2="144" y1="360" x1="144" gradientUnits="userSpaceOnUse" id="4bf58447-12b7-49c6-87c1-17f863b0543d">
                <stop offset="0%" stop-color="#2b5876"/>
                <stop offset="100%" stop-color="#4e4376"/>
            </linearGradient>
            <path id="a3f85ab2-100e-411e-80c4-b1209baa1f57" d="M128 96c0 17.67 14.33 32 32 32s32-14.33 32-32-14.33-32-32-32-32 14.33-32 32zm16 0c0-8.84 7.16-16 16-16s16 7.16 16 16-7.16 16-16 16-16-7.16-16-16z"/>
            <linearGradient y2="128" x2="160" y1="64" x1="160" gradientUnits="userSpaceOnUse" id="9df8f64a-26ae-450a-8bf1-e3748c2aecf6">
                <stop offset="0%" stop-color="#2b5876"/>
                <stop offset="100%" stop-color="#4e4376"/>
            </linearGradient>
        </defs>
        <use fill="url(#1ee9d796-9aee-45f5-9c71-46478d923d1d)" xlink:href="#637f78b5-2db9-4042-acd0-9ce679358d1c"/>
        <use stroke-opacity="0" stroke="#000000" fill-opacity="0" xlink:href="#637f78b5-2db9-4042-acd0-9ce679358d1c"/>
        <use fill="url(#832e99ec-4b89-4e68-b523-975413082422)" xlink:href="#0c4c6d2f-936d-43b4-b33a-f956847ea9d7"/>
        <use stroke-opacity="0" stroke="#000000" fill-opacity="0" xlink:href="#0c4c6d2f-936d-43b4-b33a-f956847ea9d7"/>
        <use fill="url(#b3586a2d-c9a2-4d9e-9203-79709b67ab69)" xlink:href="#7d25a85b-88e8-4fb2-ae46-4b2555918f2d"/>
        <use stroke-opacity="0" stroke="#000000" fill-opacity="0" xlink:href="#7d25a85b-88e8-4fb2-ae46-4b2555918f2d"/>
        <use fill="url(#c6038801-d814-4467-bf23-c5eab3765362)" xlink:href="#25c62c74-30ee-4d88-9843-aa68933ff71b"/>
        <use stroke-opacity="0" stroke="#000000" fill-opacity="0" xlink:href="#25c62c74-30ee-4d88-9843-aa68933ff71b"/>
        <use fill="url(#88511522-adbb-4dfe-8a38-95b7d004a683)" xlink:href="#65eb79a2-7a2c-4e74-9d8f-3908ee88bc89"/>
        <use stroke-opacity="0" stroke="#000000" fill-opacity="0" xlink:href="#65eb79a2-7a2c-4e74-9d8f-3908ee88bc89"/>
        <use fill="url(#29d5d982-2f17-4343-85d3-e77cb4803069)" xlink:href="#e5fb2565-8607-4a7f-8cae-ed085cc6f1fe"/>
        <use stroke-opacity="0" stroke="#000000" fill-opacity="0" xlink:href="#e5fb2565-8607-4a7f-8cae-ed085cc6f1fe"/>
        <use fill="url(#7b8e2b71-3c18-4544-ad61-3e87c232d31b)" xlink:href="#6a639aa9-b336-46d1-bb78-c5d8ed887dee"/>
        <use stroke-opacity="0" stroke="#000000" fill-opacity="0" xlink:href="#6a639aa9-b336-46d1-bb78-c5d8ed887dee"/>
        <use fill="url(#9ea895fb-e286-4c02-9300-708196b33c82)" xlink:href="#168a4d74-197a-4dcb-a9e0-bb1eb32feb8f"/>
        <use stroke-opacity="0" stroke="#000000" fill-opacity="0" xlink:href="#168a4d74-197a-4dcb-a9e0-bb1eb32feb8f"/>
        <use fill="url(#78cd9596-ef41-448d-bc65-18bb99734489)" xlink:href="#5ac69e43-034e-4301-b041-d08cc6b5d414"/>
        <use stroke-opacity="0" stroke="#000000" fill-opacity="0" xlink:href="#5ac69e43-034e-4301-b041-d08cc6b5d414"/>
        <use fill="url(#d04f619b-0c27-4ba5-b58e-933d8076a4f6)" xlink:href="#710f3d88-7625-40d1-afcb-2774fa4b79b0"/>
        <use stroke-opacity="0" stroke="#000000" fill-opacity="0" xlink:href="#710f3d88-7625-40d1-afcb-2774fa4b79b0"/>
        <use fill="url(#4bf58447-12b7-49c6-87c1-17f863b0543d)" xlink:href="#238d9b0d-e878-4675-8943-56e71bb7b34f"/>
        <use stroke-opacity="0" stroke="#000000" fill-opacity="0" xlink:href="#238d9b0d-e878-4675-8943-56e71bb7b34f"/>
        <use fill="url(#9df8f64a-26ae-450a-8bf1-e3748c2aecf6)" xlink:href="#a3f85ab2-100e-411e-80c4-b1209baa1f57"/>
        <use stroke-opacity="0" stroke="#000000" fill-opacity="0" xlink:href="#a3f85ab2-100e-411e-80c4-b1209baa1f57"/>
    </g>
</svg>
